<svg width="813" height="350" viewBox="0 0 813 350" fill="none" xmlns="http://www.w3.org/2000/svg">
<path d="M670.965 282.735V0H718.402V72.8619C718.402 115.864 735.264 157.153 765.367 187.861V0H812.805V282.735H767.362C766.261 282.735 765.367 281.842 765.367 280.74C765.367 261.446 757.802 242.921 744.295 229.143L718.402 202.729V282.735H670.965Z" fill="white"/>
<path fill-rule="evenodd" clip-rule="evenodd" d="M526.764 0V282.735H574.201H621.166H668.603V0H621.166V93.9305H574.201V0H526.764ZM620.696 188.333C620.696 162.525 599.775 141.604 573.967 141.604V186.445C573.967 212.253 594.888 233.174 620.696 233.174V188.333Z" fill="white"/>
<path d="M524.404 0.000793457L524.404 282.736L476.967 282.736L476.967 46.73L429.53 46.7296L429.53 282.736L382.093 282.736L382.093 46.7296L335.835 46.7296L335.835 282.736L288.398 282.736L288.398 0.000814089L335.835 0.000809942L524.404 0.000793457Z" fill="white"/>
<path d="M144.201 282.735V0H191.638V189.041C191.638 214.979 212.665 236.006 238.604 236.006V0H286.041V282.735H238.604H191.638H144.201Z" fill="white"/>
<path d="M0 282.735V0H47.4372V93.9305H94.4025V0H141.84V282.735H94.4025V141.84H47.4372V282.735H0Z" fill="white"/>
<path d="M99.7445 342.781V322.184H101.002V331.889H113.412V322.184H114.669V342.781H113.412V333.056H101.002V342.781H99.7445ZM154.824 322.184H156.081V335.822C156.081 337.223 155.756 338.473 155.106 339.573C154.455 340.666 153.557 341.531 152.41 342.168C151.27 342.798 149.96 343.113 148.478 343.113C147.003 343.113 145.692 342.798 144.546 342.168C143.399 341.531 142.497 340.663 141.84 339.563C141.19 338.463 140.868 337.216 140.875 335.822V322.184H142.132V335.751C142.132 336.938 142.4 337.994 142.937 338.919C143.48 339.845 144.227 340.575 145.179 341.112C146.131 341.641 147.231 341.906 148.478 341.906C149.725 341.906 150.825 341.641 151.777 341.112C152.729 340.575 153.473 339.845 154.009 338.919C154.552 337.994 154.824 336.938 154.824 335.751V322.184ZM182.282 322.184H183.649L191.585 340.971H191.725L199.66 322.184H201.028V342.781H199.821V325.171H199.701L192.248 342.781H191.062L183.609 325.171H183.489V342.781H182.282V322.184ZM281.095 322.184V342.781H279.868L266.733 324.467H266.613V342.781H265.356V322.184H266.593L279.727 340.518H279.848V322.184H281.095ZM341.054 343.063C339.68 343.063 338.499 342.64 337.514 341.796C336.528 340.951 335.771 339.741 335.241 338.165C334.718 336.583 334.457 334.689 334.457 332.483C334.457 330.284 334.721 328.393 335.251 326.811C335.781 325.228 336.535 324.015 337.514 323.17C338.499 322.325 339.68 321.903 341.054 321.903C342.428 321.903 343.605 322.325 344.584 323.17C345.57 324.015 346.327 325.228 346.857 326.811C347.387 328.393 347.651 330.284 347.651 332.483C347.651 334.689 347.387 336.583 346.857 338.165C346.334 339.741 345.58 340.951 344.594 341.796C343.608 342.64 342.428 343.063 341.054 343.063ZM341.054 341.896C342.723 341.896 344.034 341.068 344.986 339.412C345.938 337.749 346.414 335.44 346.414 332.483C346.414 330.512 346.197 328.822 345.761 327.414C345.332 326.006 344.718 324.93 343.92 324.186C343.122 323.435 342.167 323.059 341.054 323.059C339.385 323.059 338.074 323.891 337.122 325.553C336.17 327.216 335.694 329.526 335.694 332.483C335.694 334.454 335.908 336.144 336.337 337.552C336.766 338.953 337.38 340.029 338.178 340.78C338.982 341.524 339.941 341.896 341.054 341.896ZM378.438 343.063C377.191 343.063 376.068 342.815 375.069 342.319C374.07 341.816 373.279 341.139 372.695 340.287C372.119 339.436 371.834 338.48 371.841 337.421C371.834 336.583 372.012 335.795 372.374 335.057C372.742 334.32 373.245 333.693 373.882 333.177C374.519 332.654 375.247 332.305 376.065 332.131V332.04C375.025 331.712 374.177 331.105 373.52 330.22C372.87 329.335 372.545 328.333 372.545 327.213C372.545 326.214 372.803 325.315 373.319 324.518C373.842 323.713 374.549 323.076 375.441 322.607C376.333 322.137 377.332 321.903 378.438 321.903C379.524 321.903 380.513 322.137 381.405 322.607C382.297 323.069 383.004 323.703 383.527 324.508C384.057 325.305 384.321 326.207 384.321 327.213C384.321 328.326 383.996 329.328 383.346 330.22C382.702 331.105 381.857 331.712 380.812 332.04V332.131C381.623 332.298 382.344 332.644 382.974 333.167C383.611 333.683 384.11 334.313 384.472 335.057C384.841 335.795 385.029 336.583 385.036 337.421C385.029 338.48 384.734 339.436 384.15 340.287C383.574 341.139 382.786 341.816 381.787 342.319C380.795 342.815 379.678 343.063 378.438 343.063ZM378.438 341.896C379.464 341.896 380.379 341.695 381.184 341.293C381.988 340.891 382.622 340.347 383.084 339.664C383.547 338.973 383.782 338.202 383.788 337.35C383.782 336.486 383.54 335.701 383.064 334.997C382.595 334.293 381.958 333.733 381.153 333.318C380.349 332.902 379.444 332.694 378.438 332.694C377.426 332.694 376.514 332.902 375.703 333.318C374.898 333.733 374.258 334.293 373.782 334.997C373.312 335.701 373.081 336.486 373.088 337.35C373.081 338.202 373.309 338.973 373.772 339.664C374.241 340.347 374.878 340.891 375.682 341.293C376.494 341.695 377.412 341.896 378.438 341.896ZM378.438 331.608C379.303 331.608 380.084 331.413 380.781 331.025C381.485 330.636 382.045 330.113 382.461 329.456C382.877 328.799 383.084 328.068 383.084 327.263C383.084 326.459 382.877 325.741 382.461 325.111C382.052 324.474 381.495 323.975 380.791 323.612C380.094 323.244 379.31 323.059 378.438 323.059C377.56 323.059 376.769 323.244 376.065 323.612C375.361 323.975 374.804 324.474 374.395 325.111C373.986 325.741 373.782 326.459 373.782 327.263C373.782 328.068 373.986 328.799 374.395 329.456C374.811 330.113 375.371 330.636 376.075 331.025C376.779 331.413 377.566 331.608 378.438 331.608ZM415.862 343.063C414.615 343.063 413.492 342.815 412.493 342.319C411.494 341.816 410.703 341.139 410.12 340.287C409.543 339.436 409.258 338.48 409.265 337.421C409.258 336.583 409.436 335.795 409.798 335.057C410.167 334.32 410.67 333.693 411.307 333.177C411.943 332.654 412.671 332.305 413.489 332.131V332.04C412.45 331.712 411.602 331.105 410.944 330.22C410.294 329.335 409.969 328.333 409.969 327.213C409.969 326.214 410.227 325.315 410.743 324.518C411.266 323.713 411.974 323.076 412.865 322.607C413.757 322.137 414.756 321.903 415.862 321.903C416.949 321.903 417.937 322.137 418.829 322.607C419.721 323.069 420.428 323.703 420.951 324.508C421.481 325.305 421.746 326.207 421.746 327.213C421.746 328.326 421.421 329.328 420.77 330.22C420.127 331.105 419.282 331.712 418.236 332.04V332.131C419.047 332.298 419.768 332.644 420.398 333.167C421.035 333.683 421.535 334.313 421.897 335.057C422.265 335.795 422.453 336.583 422.46 337.421C422.453 338.48 422.158 339.436 421.575 340.287C420.998 341.139 420.21 341.816 419.211 342.319C418.219 342.815 417.103 343.063 415.862 343.063ZM415.862 341.896C416.888 341.896 417.803 341.695 418.608 341.293C419.413 340.891 420.046 340.347 420.509 339.664C420.971 338.973 421.206 338.202 421.213 337.35C421.206 336.486 420.965 335.701 420.489 334.997C420.019 334.293 419.382 333.733 418.578 333.318C417.773 332.902 416.868 332.694 415.862 332.694C414.85 332.694 413.938 332.902 413.127 333.318C412.322 333.733 411.682 334.293 411.206 334.997C410.737 335.701 410.505 336.486 410.512 337.35C410.505 338.202 410.733 338.973 411.196 339.664C411.665 340.347 412.302 340.891 413.107 341.293C413.918 341.695 414.837 341.896 415.862 341.896ZM415.862 331.608C416.727 331.608 417.508 331.413 418.206 331.025C418.91 330.636 419.47 330.113 419.885 329.456C420.301 328.799 420.509 328.068 420.509 327.263C420.509 326.459 420.301 325.741 419.885 325.111C419.476 324.474 418.92 323.975 418.216 323.612C417.518 323.244 416.734 323.059 415.862 323.059C414.984 323.059 414.193 323.244 413.489 323.612C412.785 323.975 412.228 324.474 411.819 325.111C411.41 325.741 411.206 326.459 411.206 327.263C411.206 328.068 411.41 328.799 411.819 329.456C412.235 330.113 412.795 330.636 413.499 331.025C414.203 331.413 414.991 331.608 415.862 331.608ZM453.216 343.063C451.842 343.063 450.662 342.64 449.676 341.796C448.691 340.951 447.933 339.741 447.403 338.165C446.88 336.583 446.619 334.689 446.619 332.483C446.619 330.284 446.884 328.393 447.413 326.811C447.943 325.228 448.697 324.015 449.676 323.17C450.662 322.325 451.842 321.903 453.216 321.903C454.591 321.903 455.767 322.325 456.746 323.17C457.732 324.015 458.49 325.228 459.019 326.811C459.549 328.393 459.814 330.284 459.814 332.483C459.814 334.689 459.549 336.583 459.019 338.165C458.496 339.741 457.742 340.951 456.756 341.796C455.771 342.64 454.591 343.063 453.216 343.063ZM453.216 341.896C454.886 341.896 456.197 341.068 457.149 339.412C458.101 337.749 458.577 335.44 458.577 332.483C458.577 330.512 458.359 328.822 457.923 327.414C457.494 326.006 456.88 324.93 456.083 324.186C455.285 323.435 454.329 323.059 453.216 323.059C451.547 323.059 450.236 323.891 449.284 325.553C448.332 327.216 447.856 329.526 447.856 332.483C447.856 334.454 448.07 336.144 448.5 337.552C448.929 338.953 449.542 340.029 450.34 340.78C451.145 341.524 452.103 341.896 453.216 341.896ZM518.905 342.781H513.193V322.184H519.348C521.279 322.184 522.932 322.593 524.306 323.411C525.681 324.229 526.733 325.403 527.464 326.931C528.202 328.453 528.567 330.28 528.56 332.412C528.554 334.591 528.171 336.455 527.414 338.004C526.656 339.546 525.56 340.73 524.125 341.554C522.69 342.372 520.95 342.781 518.905 342.781ZM514.45 341.615H518.855C520.692 341.615 522.241 341.249 523.502 340.518C524.762 339.781 525.714 338.725 526.358 337.35C527.008 335.976 527.33 334.33 527.323 332.412C527.323 330.522 527.011 328.902 526.388 327.555C525.764 326.2 524.856 325.161 523.662 324.437C522.476 323.713 521.021 323.351 519.298 323.351H514.45V341.615ZM553.715 342.781V322.184H565.18V323.351H554.972V331.889H564.566V333.056H554.972V341.615H565.421V342.781H553.715ZM601.744 327.334C601.637 326.053 601.114 325.017 600.175 324.226C599.244 323.435 598.037 323.039 596.555 323.039C595.556 323.039 594.668 323.224 593.89 323.592C593.112 323.961 592.502 324.464 592.059 325.101C591.617 325.738 591.396 326.469 591.396 327.293C591.396 327.823 591.496 328.302 591.697 328.732C591.905 329.154 592.197 329.533 592.572 329.868C592.948 330.196 593.394 330.485 593.91 330.733C594.426 330.981 594.996 331.199 595.62 331.387L597.872 332.05C598.643 332.285 599.354 332.557 600.005 332.865C600.662 333.173 601.231 333.542 601.714 333.971C602.204 334.394 602.582 334.89 602.851 335.46C603.126 336.03 603.263 336.687 603.263 337.431C603.263 338.517 602.981 339.489 602.418 340.347C601.862 341.206 601.067 341.883 600.035 342.379C599.009 342.868 597.799 343.113 596.404 343.113C595.077 343.113 593.92 342.889 592.934 342.439C591.956 341.99 591.181 341.367 590.611 340.569C590.041 339.764 589.719 338.839 589.646 337.793H590.933C591 338.644 591.272 339.382 591.748 340.005C592.23 340.622 592.871 341.098 593.669 341.434C594.466 341.769 595.378 341.936 596.404 341.936C597.51 341.936 598.486 341.749 599.331 341.373C600.175 340.991 600.836 340.461 601.312 339.784C601.788 339.107 602.026 338.319 602.026 337.421C602.026 336.697 601.855 336.077 601.513 335.56C601.171 335.044 600.665 334.598 599.994 334.223C599.331 333.847 598.506 333.512 597.52 333.217L595.117 332.493C593.508 332.003 592.277 331.336 591.426 330.491C590.581 329.647 590.159 328.594 590.159 327.334C590.159 326.274 590.44 325.336 591.003 324.518C591.567 323.693 592.331 323.046 593.296 322.577C594.269 322.107 595.365 321.873 596.585 321.873C597.812 321.873 598.895 322.111 599.834 322.587C600.772 323.056 601.516 323.703 602.066 324.528C602.616 325.346 602.921 326.281 602.981 327.334H601.744ZM629.738 322.184V342.781H628.481V322.184H629.738ZM670.38 328.621C670.226 327.924 669.965 327.25 669.596 326.599C669.227 325.942 668.754 325.352 668.178 324.829C667.608 324.3 666.937 323.881 666.166 323.572C665.402 323.264 664.544 323.11 663.592 323.11C662.137 323.11 660.846 323.492 659.72 324.256C658.6 325.014 657.722 326.097 657.085 327.505C656.455 328.906 656.139 330.565 656.139 332.483C656.139 334.38 656.455 336.033 657.085 337.441C657.715 338.849 658.597 339.938 659.73 340.709C660.87 341.474 662.194 341.856 663.702 341.856C665.05 341.856 666.243 341.544 667.283 340.921C668.329 340.297 669.143 339.405 669.727 338.246C670.31 337.086 670.595 335.698 670.581 334.082L671.024 334.293H664.024V333.126H671.808V334.293C671.808 336.11 671.46 337.676 670.762 338.99C670.072 340.297 669.113 341.303 667.886 342.007C666.666 342.711 665.271 343.063 663.702 343.063C661.932 343.063 660.387 342.624 659.066 341.745C657.745 340.867 656.719 339.637 655.989 338.054C655.264 336.465 654.902 334.608 654.902 332.483C654.902 330.887 655.11 329.439 655.526 328.138C655.942 326.837 656.535 325.724 657.306 324.799C658.077 323.867 658.996 323.153 660.062 322.657C661.128 322.154 662.304 321.903 663.592 321.903C664.758 321.903 665.808 322.097 666.74 322.486C667.672 322.868 668.476 323.384 669.153 324.035C669.837 324.679 670.39 325.399 670.813 326.197C671.235 326.988 671.52 327.796 671.668 328.621H670.38ZM712.901 322.184V342.781H711.674L698.539 324.467H698.419V342.781H697.162V322.184H698.399L711.533 340.518H711.654V322.184H712.901Z" fill="white"/>
<path d="M240.435 323.002H241.762L234.33 343.599H232.882L225.45 323.002H226.777L233.556 341.98H233.656L240.435 323.002ZM238.554 330.756H228.658V329.589H238.554V330.756Z" fill="white"/>
</svg>
